<?xml version="1.0" standalone="no"?><!DOCTYPE svg PUBLIC "-//W3C//DTD SVG 1.1//EN" "http://www.w3.org/Graphics/SVG/1.1/DTD/svg11.dtd"><svg t="1702565144907" class="icon" viewBox="0 0 1024 1024" version="1.1" xmlns="http://www.w3.org/2000/svg" p-id="2224" xmlns:xlink="http://www.w3.org/1999/xlink" width="200" height="200"><path d="M826.181818 907.636364h-628.363636A81.454545 81.454545 0 0 1 116.363636 826.181818v-628.363636A81.454545 81.454545 0 0 1 197.818182 116.363636h372.363636a34.909091 34.909091 0 0 1 0 69.818182h-372.363636a11.636364 11.636364 0 0 0-11.636364 11.636364v628.363636a11.636364 11.636364 0 0 0 11.636364 11.636364h628.363636a11.636364 11.636364 0 0 0 11.636364-11.636364v-349.090909a34.909091 34.909091 0 0 1 69.818182 0v349.090909a81.454545 81.454545 0 0 1-81.454546 81.454546z" p-id="2225" fill="#1296db"></path><path d="M488.727273 570.181818a34.909091 34.909091 0 0 1-24.669091-59.578182l384-384a34.909091 34.909091 0 0 1 49.338182 49.338182l-384 384a35.607273 35.607273 0 0 1-24.669091 10.24z" p-id="2226" fill="#1296db"></path></svg>