<?xml version="1.0" standalone="no"?><!DOCTYPE svg PUBLIC "-//W3C//DTD SVG 1.1//EN" "http://www.w3.org/Graphics/SVG/1.1/DTD/svg11.dtd"><svg t="1711192835096" class="icon" viewBox="0 0 1024 1024" version="1.1" xmlns="http://www.w3.org/2000/svg" p-id="24025" xmlns:xlink="http://www.w3.org/1999/xlink" width="48" height="48"><path d="M194.56 133.12h583.68v716.8H194.56z" fill="#E4EDFF" p-id="24026"></path><path d="M778.24 133.12v716.8H194.56V133.12h583.68z m-40.96 40.96H235.52v634.88h501.76V174.08zM501.76 563.2v40.96H286.72v-40.96h215.04z m194.56-143.36v40.96H286.72v-40.96h409.6z m0-133.12v40.96H286.72v-40.96h409.6z" fill="#355DB4" p-id="24027"></path><path d="M874.41408 581.86752l-45.7728 52.48a4.72064 4.72064 0 0 0 0.08192 6.28736l0.38912 0.38912 46.592 40.37632c1.8432 1.5872 4.5568 1.52576 6.31808-0.07168l0.38912-0.4096 44.4416-50.95424a10.3936 10.3936 0 0 1 18.18624 5.7856c4.17792 40.63232-1.536 69.90848-17.16224 87.808a100.49536 100.49536 0 0 1-84.20352 34.17088L674.68288 950.86592a57.11872 57.11872 0 0 1-80.40448 5.632 56.68864 56.68864 0 0 1-5.60128-80.16896l167.43424-191.35488a99.79904 99.79904 0 0 1 21.248-91.8528c16.30208-18.688 46.01856-28.20096 89.1392-28.5184a10.41408 10.41408 0 0 1 7.91552 17.26464z" fill="#FFE9D3" p-id="24028"></path><path d="M759.53152 582.49216a120.24832 120.24832 0 0 0-26.112 93.73696l0.48128 3.01056-160.64512 183.6032a77.17888 77.17888 0 0 0 7.60832 109.12768l2.12992 1.77152a77.60896 77.60896 0 0 0 107.13088-9.4208l162.54976-185.76384 3.54304-0.07168a120.92416 120.92416 0 0 0 87.10144-41.472c20.0192-22.95808 26.79808-57.62048 22.08768-103.36256a30.91456 30.91456 0 0 0-10.3936-20.10112l-1.57696-1.29024a30.8736 30.8736 0 0 0-42.01472 4.23936l-34.1504 39.15776-22.80448-19.7632 35.3792-40.56064a30.89408 30.89408 0 0 0-23.5008-51.2c-48.41472 0.34816-83.54816 11.59168-104.42752 35.5328l-2.38592 2.82624z m81.26464 4.17792l2.5088-0.3072-30.08512 34.51904a25.21088 25.21088 0 0 0 0.38912 33.5872l1.18784 1.19808 0.91136 0.82944 46.592 40.37632c9.6768 8.3968 24.07424 8.17152 33.49504-0.38912l1.25952-1.23904 0.78848-0.86016 28.03712-32.14336c-0.3072 22.38464-5.02784 38.21568-13.43488 47.86176a80.00512 80.00512 0 0 1-67.072 27.21792l-10.30144-0.84992-175.80032 200.9088a36.64896 36.64896 0 0 1-51.57888 3.6352 36.20864 36.20864 0 0 1-3.584-51.22048L778.752 690.19648l-2.8672-10.58816a79.3088 79.3088 0 0 1 16.896-73.02144c8.8064-10.0864 24.6784-16.97792 48.0256-19.9168z" fill="#F19233" p-id="24029"></path></svg>