<?xml version="1.0" standalone="no"?><!DOCTYPE svg PUBLIC "-//W3C//DTD SVG 1.1//EN" "http://www.w3.org/Graphics/SVG/1.1/DTD/svg11.dtd"><svg t="1714641867613" class="icon" viewBox="0 0 1024 1024" version="1.1" xmlns="http://www.w3.org/2000/svg" p-id="5250" width="64" height="64" xmlns:xlink="http://www.w3.org/1999/xlink"><path d="M51.2 42.666667m35.84 0l866.986667 0q35.84 0 35.84 35.84l0 866.986666q0 35.84-35.84 35.84l-866.986667 0q-35.84 0-35.84-35.84l0-866.986666q0-35.84 35.84-35.84Z" fill="#4E98FE" p-id="5251"></path><path d="M51.2 569.6m23.722667 0l891.221333 0q23.722667 0 23.722667 23.722667l0 364.288q0 23.722667-23.722667 23.722666l-891.221333 0q-23.722667 0-23.722667-23.722666l0-364.288q0-23.722667 23.722667-23.722667Z" fill="#7DCE3B" p-id="5252"></path><path d="M51.2 358.4h938.666667v307.2H51.2z" fill="#F85F5D" p-id="5253"></path><path d="M418.133333 42.666667h204.8v938.666666H418.133333z" fill="#FCAF44" p-id="5254"></path><path d="M375.466667 392.533333m8.533333 0l273.066667 0q8.533333 0 8.533333 8.533334l0 221.866666q0 8.533333-8.533333 8.533334l-273.066667 0q-8.533333 0-8.533333-8.533334l0-221.866666q0-8.533333 8.533333-8.533334Z" fill="#FFFFFF" p-id="5255"></path><path d="M418.133333 443.733333m7.338667 0l190.122667 0q7.338667 0 7.338666 7.338667l0 121.856q0 7.338667-7.338666 7.338667l-190.122667 0q-7.338667 0-7.338667-7.338667l0-121.856q0-7.338667 7.338667-7.338667Z" fill="#FCAE42" p-id="5256"></path></svg>