<?xml version="1.0" standalone="no"?><!DOCTYPE svg PUBLIC "-//W3C//DTD SVG 1.1//EN" "http://www.w3.org/Graphics/SVG/1.1/DTD/svg11.dtd"><svg t="1702565274680" class="icon" viewBox="0 0 1024 1024" version="1.1" xmlns="http://www.w3.org/2000/svg" p-id="2654" xmlns:xlink="http://www.w3.org/1999/xlink" width="200" height="200"><path d="M779.636364 954.181818h-535.272728A128 128 0 0 1 116.363636 825.018182v-628.363637A127.767273 127.767273 0 0 1 244.130909 69.818182h535.272727A128 128 0 0 1 907.636364 196.421818v628.363637A128.232727 128.232727 0 0 1 779.636364 954.181818z m-535.272728-814.545454A58.181818 58.181818 0 0 0 186.181818 196.421818v628.363637A58.181818 58.181818 0 0 0 244.130909 884.363636h535.272727a58.181818 58.181818 0 0 0 58.181819-58.181818v-628.363636A58.181818 58.181818 0 0 0 779.636364 139.636364z" p-id="2655" fill="#1296db"></path><path d="M686.545455 373.527273h-349.09091a34.909091 34.909091 0 0 1 0-69.818182h349.09091a34.909091 34.909091 0 0 1 0 69.818182zM523.636364 569.250909h-186.181819a34.909091 34.909091 0 0 1 0-69.818182h186.181819a34.909091 34.909091 0 0 1 0 69.818182z" p-id="2656" fill="#1296db"></path></svg>