<?xml version="1.0" standalone="no"?><!DOCTYPE svg PUBLIC "-//W3C//DTD SVG 1.1//EN" "http://www.w3.org/Graphics/SVG/1.1/DTD/svg11.dtd"><svg t="1711097117380" class="icon" viewBox="0 0 1024 1024" version="1.1" xmlns="http://www.w3.org/2000/svg" p-id="10509" width="48" height="48" xmlns:xlink="http://www.w3.org/1999/xlink"><path d="M512 512m-512 0a512 512 0 1 0 1024 0 512 512 0 1 0-1024 0Z" fill="#78C53A" p-id="10510"></path><path d="M486.4 729.6c-8.533333 0-17.066667-4.266667-25.6-8.533333l-187.733333-140.8c-17.066667-12.8-21.333333-42.666667-8.533334-59.733334 12.8-17.066667 42.666667-21.333333 59.733334-8.533333l153.6 115.2 221.866666-311.466667c12.8-17.066667 38.4-25.6 59.733334-8.533333 17.066667 12.8 25.6 38.4 8.533333 59.733333l-247.466667 345.6c-8.533333 8.533333-17.066667 17.066667-29.866666 17.066667h-4.266667z" fill="#FFFFFF" p-id="10511"></path></svg>