<?xml version="1.0" standalone="no"?><!DOCTYPE svg PUBLIC "-//W3C//DTD SVG 1.1//EN" "http://www.w3.org/Graphics/SVG/1.1/DTD/svg11.dtd"><svg t="1714642100700" class="icon" viewBox="0 0 1316 1024" version="1.1" xmlns="http://www.w3.org/2000/svg" p-id="12670" xmlns:xlink="http://www.w3.org/1999/xlink" width="82.25" height="64"><path d="M68.164697 118.107806v785.855826a117.9083 117.9083 0 0 0 117.908299 117.841797h943.00039a117.9083 117.9083 0 0 0 117.9083-117.841797V196.646837a117.9083 117.9083 0 0 0-117.9083-117.841797H602.775425a39.302767 39.302767 0 0 1-21.879205-6.650215L502.623198 19.950643a117.841798 117.841798 0 0 0-65.371607-19.950643H186.006494A117.841798 117.841798 0 0 0 68.098195 117.841798z m78.605533 0a39.302767 39.302767 0 0 1 39.302766-39.302766h251.245097a39.369269 39.369269 0 0 1 21.812703 6.650214l78.273023 52.204182a117.841798 117.841798 0 0 0 65.371606 19.950643h526.297961a39.302767 39.302767 0 0 1 39.302767 39.302767v707.250292a39.302767 39.302767 0 0 1-39.302767 39.302767H186.072996a39.302767 39.302767 0 0 1-39.302766-39.302767z m0 0" fill="#2F68DA" p-id="12671"></path><path d="M1196.972074 314.555137a117.841798 117.841798 0 0 1 117.043772 132.472269l-58.920899 471.500195a117.9083 117.9083 0 0 1-117.043772 103.277828H176.895701A117.9083 117.9083 0 0 1 59.918431 918.527601L0.997532 447.027406a117.841798 117.841798 0 0 1 102.413301-131.541239l7.315235-0.798026h7.315236z m0 78.605533H113.053643a39.302767 39.302767 0 0 0-34.115599 43.824913l58.920899 471.500194a39.302767 39.302767 0 0 0 38.970256 34.448111h961.421483a39.302767 39.302767 0 0 0 38.970256-34.448111l58.920899-471.500194v-4.854657a39.236264 39.236264 0 0 0-39.302767-39.302766z m0 0" fill="#2F68DA" p-id="12672"></path><path d="M1197.171581 393.426679H113.053643a39.302767 39.302767 0 0 0-34.115599 43.824912l58.920899 471.500195a39.302767 39.302767 0 0 0 38.970256 34.44811h961.421483a39.302767 39.302767 0 0 0 38.970256-34.44811l58.920899-471.500195V432.396935a39.236264 39.236264 0 0 0-39.302767-39.302767z m0 0" fill="#D2D8FA" p-id="12673"></path><path d="M264.612028 746.752565h314.35563v78.605533H264.612028z" fill="#2F68DA" p-id="12674"></path></svg>