<?xml version="1.0" encoding="UTF-8"?>
<svg width="18px" height="18px" viewBox="0 0 18 18" version="1.1" xmlns="http://www.w3.org/2000/svg" xmlns:xlink="http://www.w3.org/1999/xlink">
    <!-- Generator: Sketch 63.1 (92452) - https://sketch.com -->
    <title>形状</title>
    <desc>Created with Sketch.</desc>
    <g id="列表" stroke="none" stroke-width="1" fill="none" fill-rule="evenodd">
        <g id="内容" transform="translate(-216.000000, -94.000000)" fill="#9254DE" fill-rule="nonzero">
            <g id="ungroup" transform="translate(215.000000, 93.000000)">
                <path d="M14.375,10.7421875 L5.625,10.7421875 C5.453125,10.7421875 5.3125,10.8828125 5.3125,11.0546875 L5.3125,14.4921875 C5.3125,14.6640625 5.453125,14.8046875 5.625,14.8046875 L14.375,14.8046875 C14.546875,14.8046875 14.6875,14.6640625 14.6875,14.4921875 L14.6875,11.0546875 C14.6875,10.8828125 14.546875,10.7421875 14.375,10.7421875 Z M13.28125,13.3984375 L6.71875,13.3984375 L6.71875,12.1484375 L13.28125,12.1484375 L13.28125,13.3984375 Z M17.34375,15.9375 C16.5664062,15.9375 15.9375,16.5664062 15.9375,17.34375 C15.9375,18.1210938 16.5664062,18.75 17.34375,18.75 C18.1210938,18.75 18.75,18.1210938 18.75,17.34375 C18.75,16.5664062 18.1210938,15.9375 17.34375,15.9375 Z M17.34375,17.8125 C17.0839844,17.8125 16.875,17.6035156 16.875,17.34375 C16.875,17.0839844 17.0839844,16.875 17.34375,16.875 C17.6035156,16.875 17.8125,17.0839844 17.8125,17.34375 C17.8125,17.6035156 17.6035156,17.8125 17.34375,17.8125 Z M14.375,5.1953125 L5.625,5.1953125 C5.453125,5.1953125 5.3125,5.3359375 5.3125,5.5078125 L5.3125,8.9453125 C5.3125,9.1171875 5.453125,9.2578125 5.625,9.2578125 L14.375,9.2578125 C14.546875,9.2578125 14.6875,9.1171875 14.6875,8.9453125 L14.6875,5.5078125 C14.6875,5.3359375 14.546875,5.1953125 14.375,5.1953125 Z M13.28125,7.8515625 L6.71875,7.8515625 L6.71875,6.6015625 L13.28125,6.6015625 L13.28125,7.8515625 Z M17.34375,4.0625 C18.1210938,4.0625 18.75,3.43359375 18.75,2.65625 C18.75,1.87890625 18.1210938,1.25 17.34375,1.25 C16.5664062,1.25 15.9375,1.87890625 15.9375,2.65625 C15.9375,3.43359375 16.5664062,4.0625 17.34375,4.0625 Z M17.34375,2.1875 C17.6035156,2.1875 17.8125,2.39648438 17.8125,2.65625 C17.8125,2.91601562 17.6035156,3.125 17.34375,3.125 C17.0839844,3.125 16.875,2.91601562 16.875,2.65625 C16.875,2.39648438 17.0839844,2.1875 17.34375,2.1875 Z M2.65625,1.25 C1.87890625,1.25 1.25,1.87890625 1.25,2.65625 C1.25,3.43359375 1.87890625,4.0625 2.65625,4.0625 C3.43359375,4.0625 4.0625,3.43359375 4.0625,2.65625 C4.0625,1.87890625 3.43359375,1.25 2.65625,1.25 Z M2.65625,3.125 C2.39648438,3.125 2.1875,2.91601562 2.1875,2.65625 C2.1875,2.39648438 2.39648438,2.1875 2.65625,2.1875 C2.91601562,2.1875 3.125,2.39648438 3.125,2.65625 C3.125,2.91601562 2.91601562,3.125 2.65625,3.125 Z M2.65625,15.9375 C1.87890625,15.9375 1.25,16.5664062 1.25,17.34375 C1.25,18.1210938 1.87890625,18.75 2.65625,18.75 C3.43359375,18.75 4.0625,18.1210938 4.0625,17.34375 C4.0625,16.5664062 3.43359375,15.9375 2.65625,15.9375 Z M2.65625,17.8125 C2.39648438,17.8125 2.1875,17.6035156 2.1875,17.34375 C2.1875,17.0839844 2.39648438,16.875 2.65625,16.875 C2.91601562,16.875 3.125,17.0839844 3.125,17.34375 C3.125,17.6035156 2.91601562,17.8125 2.65625,17.8125 Z" id="形状"></path>
            </g>
        </g>
    </g>
</svg>