<?xml version="1.0" standalone="no"?><!DOCTYPE svg PUBLIC "-//W3C//DTD SVG 1.1//EN" "http://www.w3.org/Graphics/SVG/1.1/DTD/svg11.dtd"><svg t="1706190310003" class="icon" viewBox="0 0 1024 1024" version="1.1" xmlns="http://www.w3.org/2000/svg" p-id="14300" width="32" height="32" xmlns:xlink="http://www.w3.org/1999/xlink"><path d="M1002.656 383.75h-21.312v-42.188c0-11.812-9.562-21.344-21.344-21.344s-21.344 9.532-21.344 21.344v42.188h-21.312c-11.782 0-21.344 9.562-21.344 21.376 0 11.75 9.562 21.312 21.344 21.312h21.312v42.688c0 11.75 9.562 21.312 21.344 21.312s21.344-9.562 21.344-21.312v-42.688h21.312c11.782 0 21.344-9.562 21.344-21.312 0-11.814-9.562-21.376-21.344-21.376zM704 554.218h-21.344V512c0-11.782-9.532-21.344-21.312-21.344S640 500.218 640 512v42.218h-21.344c-11.782 0-21.312 9.532-21.312 21.344 0 11.75 9.532 21.312 21.312 21.312H640v42.688c0 11.75 9.562 21.312 21.344 21.312s21.312-9.562 21.312-21.312v-42.688H704c11.782 0 21.344-9.562 21.344-21.312 0-11.812-9.562-21.344-21.344-21.344z" fill="#F6BB42" p-id="14301"></path><path d="M336.156 687.844c-129.468-129.468-158.312-321.468-86.562-478.782-45.156 20.562-87.468 49.438-124.624 86.562-166.624 166.624-166.624 436.782 0 603.406s436.782 166.624 603.406 0c37.156-37.156 66-79.468 86.562-124.594-157.344 71.72-349.314 42.876-478.782-86.592z" fill="#FFCE54" p-id="14302"></path><path d="M1004.406 152.062c-2.906-0.218-72.468-5.75-161.562 4.688-52.562 6.188-101 16.688-144 31.188-54.594 18.468-100.594 43.532-136.718 74.562l27.782 32.376c72.844-62.5 180-86.5 257.094-95.624 84.75-10.032 152.812-4.75 153.938-4.688 0.562 0.062 1.156 0.094 1.718 0.094 11.782 0 21.344-9.532 21.344-21.344-0.002-11.19-8.626-20.346-19.596-21.252z" fill="#DA4453" p-id="14303"></path><path d="M428.812 533.75c0 11.812-9.562 21.376-21.344 21.376s-21.312-9.562-21.312-21.376c0-11.75 9.532-21.312 21.312-21.312s21.344 9.562 21.344 21.312z" fill="#ED5565" p-id="14304"></path><path d="M810.656 21.312c0 11.812-9.532 21.344-21.312 21.344S768 33.124 768 21.312C768 9.562 777.562 0 789.344 0s21.312 9.562 21.312 21.312z" fill="#FC6E51" p-id="14305"></path><path d="M1024 618.876c0 11.782-9.562 21.344-21.344 21.344s-21.312-9.562-21.312-21.344 9.532-21.312 21.312-21.312S1024 607.094 1024 618.876z" fill="#AC92EC" p-id="14306"></path><path d="M640 278.688c0 35.312-28.656 64-64 64s-64-28.688-64-64c0-35.376 28.656-64 64-64s64 28.624 64 64z" fill="#ED5565" p-id="14307"></path><path d="M398.656 128h-21.312V85.75c0-11.75-9.562-21.312-21.344-21.312S334.656 74 334.656 85.75V128h-21.312C301.562 128 292 137.562 292 149.312c0 11.812 9.562 21.344 21.344 21.344h21.312v42.656c0 11.812 9.562 21.344 21.344 21.344s21.344-9.532 21.344-21.344V170.656h21.312c11.782 0 21.344-9.532 21.344-21.344C420 137.562 410.438 128 398.656 128z" fill="#F6BB42" p-id="14308"></path></svg>