<svg t="1711096657542" class="icon" viewBox="0 0 1024 1024" version="1.1" xmlns="http://www.w3.org/2000/svg" p-id="39602" width="48" height="48"><path d="M66.9 513.2a446.6 449 0 1 0 893.2 0 446.6 449 0 1 0-893.2 0Z" fill="#FFFFFF" p-id="39603"></path><path d="M511 596.8c-246.6 0-446.6-333-446.6-85s199.9 449 446.6 449 446.6-201 446.6-449c-0.1-247.9-200 85-446.6 85z" fill="#6792D9" p-id="39604"></path><path d="M450.6 179c-65.7 207.9-200.4 295.5-200.4 406.1 0 110.7 89.7 200.4 200.4 200.4S651 695.8 651 585.1c-0.1-110.7-179.8-401.8-200.4-406.1z m362.1 119c-9.8-46.3-110.6-152.1-119.7-152-9.1 92.7-57.6 141.2-47.9 187.5 9.8 46.3 55.2 75.8 101.5 66 46.3-9.9 75.8-55.3 66.1-101.5z m0 0" fill="#3971CE" p-id="39605"></path></svg>