<?xml version="1.0" standalone="no"?><!DOCTYPE svg PUBLIC "-//W3C//DTD SVG 1.1//EN" "http://www.w3.org/Graphics/SVG/1.1/DTD/svg11.dtd"><svg t="1706190624334" class="icon" viewBox="0 0 1024 1024" version="1.1" xmlns="http://www.w3.org/2000/svg" p-id="29551" width="32" height="32" xmlns:xlink="http://www.w3.org/1999/xlink"><path d="M512 512m-224 0a224 224 0 1 0 448 0 224 224 0 1 0-448 0Z" fill="#FF934A" p-id="29552"></path><path d="M445.292 120.692C446.188 89.596 466.326 65.112 497.42 64.204 501.898 64.074 506.758 64 512 64c5.24 0 10.102 0.074 14.582 0.204 31.092 0.908 51.23 25.392 52.126 56.488 0.29 9.912 0.492 20.982 0.492 32.908 0 11.926-0.2 22.996-0.492 32.908-0.896 31.096-21.034 55.58-52.126 56.488-4.48 0.13-9.34 0.204-14.582 0.204-5.24 0-10.102-0.074-14.582-0.204-31.092-0.908-51.23-25.392-52.126-56.488A1121.37 1121.37 0 0 1 444.8 153.6c0-11.926 0.2-22.996 0.492-32.908zM445.292 903.308c0.896 31.096 21.034 55.58 52.126 56.488 4.48 0.13 9.34 0.204 14.582 0.204 5.24 0 10.102-0.074 14.582-0.204 31.092-0.908 51.23-25.392 52.126-56.488 0.29-9.912 0.492-20.982 0.492-32.908 0-11.926-0.2-22.996-0.492-32.908-0.896-31.096-21.034-55.58-52.126-56.488-4.48-0.13-9.34-0.204-14.582-0.204-5.24 0-10.102 0.074-14.582 0.204-31.092 0.908-51.23 25.392-52.126 56.488a1121.37 1121.37 0 0 0-0.492 32.908c0 11.926 0.2 22.996 0.492 32.908zM120.694 578.716C89.604 577.8 65.12 557.676 64.202 526.58 64.068 522.102 64 517.25 64 512s0.068-10.102 0.2-14.58c0.92-31.096 25.404-51.22 56.494-52.136a1122.992 1122.992 0 0 1 65.812 0c31.09 0.916 55.574 21.04 56.492 52.136 0.134 4.478 0.202 9.33 0.202 14.58s-0.068 10.102-0.2 14.58c-0.92 31.096-25.404 51.22-56.494 52.136a1122.992 1122.992 0 0 1-65.812 0zM903.306 578.716c31.09-0.916 55.574-21.04 56.492-52.136 0.134-4.478 0.202-9.33 0.202-14.58s-0.068-10.102-0.2-14.58c-0.92-31.096-25.404-51.22-56.494-52.136a1122.992 1122.992 0 0 0-65.812 0c-31.09 0.916-55.574 21.04-56.492 52.136-0.134 4.478-0.202 9.33-0.202 14.58s0.068 10.102 0.2 14.58c0.92 31.096 25.404 51.22 56.494 52.136a1122.992 1122.992 0 0 0 65.812 0zM188.12 282.48C166.792 259.842 163.7 228.3 185.048 205.67a471.58 471.58 0 0 1 10.17-10.456 486.64 486.64 0 0 1 10.46-10.166c22.624-21.346 54.164-18.264 76.788 3.078a1104.74 1104.74 0 0 1 23.632 22.928 1160.744 1160.744 0 0 1 22.914 23.612c21.348 22.636 24.44 54.18 3.092 76.808a599.97 599.97 0 0 1-10.17 10.454 486.64 486.64 0 0 1-10.46 10.166c-22.624 21.346-54.164 18.264-76.81-3.078a1106.878 1106.878 0 0 1-23.61-22.928 1171.416 1171.416 0 0 1-22.938-23.612zM741.532 835.872c22.624 21.34 54.164 24.424 76.788 3.08a486.64 486.64 0 0 0 10.46-10.168 471.58 471.58 0 0 0 10.17-10.456c21.348-22.628 18.256-54.172-3.068-76.806a1171.416 1171.416 0 0 0-22.938-23.612 1106.878 1106.878 0 0 0-23.61-22.928c-22.646-21.34-54.186-24.424-76.81-3.08a486.64 486.64 0 0 0-10.46 10.168 599.97 599.97 0 0 0-10.17 10.454c-21.346 22.63-18.256 54.172 3.092 76.808a1160.744 1160.744 0 0 0 22.914 23.612 1104.74 1104.74 0 0 0 23.632 22.928zM282.468 835.872c-22.624 21.34-54.164 24.424-76.788 3.08a486.64 486.64 0 0 1-10.46-10.168 471.58 471.58 0 0 1-10.17-10.456c-21.348-22.628-18.256-54.172 3.068-76.806a1171.416 1171.416 0 0 1 22.938-23.612 1106.878 1106.878 0 0 1 23.61-22.928c22.646-21.34 54.186-24.424 76.81-3.08a486.64 486.64 0 0 1 10.46 10.168 599.97 599.97 0 0 1 10.17 10.454c21.346 22.63 18.256 54.172-3.092 76.808a1160.744 1160.744 0 0 1-22.914 23.612 1104.74 1104.74 0 0 1-23.632 22.928zM835.88 282.48c21.326-22.636 24.418-54.18 3.07-76.808a471.58 471.58 0 0 0-10.17-10.456 486.64 486.64 0 0 0-10.46-10.166c-22.624-21.346-54.164-18.264-76.788 3.078a1104.74 1104.74 0 0 0-23.632 22.928 1160.744 1160.744 0 0 0-22.914 23.612c-21.348 22.636-24.44 54.18-3.092 76.808a599.97 599.97 0 0 0 10.17 10.454 486.64 486.64 0 0 0 10.46 10.166c22.624 21.346 54.164 18.264 76.81-3.078a1106.878 1106.878 0 0 0 23.61-22.928 1171.416 1171.416 0 0 0 22.938-23.612z" fill="#FCBF28" p-id="29553"></path></svg>