<?xml version="1.0" standalone="no"?><!DOCTYPE svg PUBLIC "-//W3C//DTD SVG 1.1//EN" "http://www.w3.org/Graphics/SVG/1.1/DTD/svg11.dtd"><svg t="1702565402090" class="icon" viewBox="0 0 1024 1024" version="1.1" xmlns="http://www.w3.org/2000/svg" p-id="3298" xmlns:xlink="http://www.w3.org/1999/xlink" width="200" height="200"><path d="M132.189091 605.090909a34.909091 34.909091 0 0 1-34.443636-30.72A427.752727 427.752727 0 0 1 93.090909 512 418.909091 418.909091 0 0 1 384 112.872727a34.909091 34.909091 0 0 1 21.410909 66.56A349.090909 349.090909 0 0 0 166.865455 563.898182a35.141818 35.141818 0 0 1-29.556364 39.796363zM512 930.909091a418.909091 418.909091 0 0 1-273.221818-101.469091 34.909091 34.909091 0 1 1 46.545454-52.829091 349.090909 349.090909 0 0 0 457.309091-1.861818 34.909091 34.909091 0 0 1 46.545455 52.596364A418.909091 418.909091 0 0 1 512 930.909091zM892.043636 602.530909h-5.12a34.909091 34.909091 0 0 1-29.556363-39.563636A336.058182 336.058182 0 0 0 861.090909 512 347.694545 347.694545 0 0 0 618.356364 179.432727a34.909091 34.909091 0 1 1 21.178181-66.56A417.28 417.28 0 0 1 930.909091 512a407.970909 407.970909 0 0 1-4.421818 60.741818 34.909091 34.909091 0 0 1-34.443637 29.789091z" p-id="3299" fill="#1296db"></path><path d="M512 128m-58.181818 0a58.181818 58.181818 0 1 0 116.363636 0 58.181818 58.181818 0 1 0-116.363636 0Z" p-id="3300" fill="#1296db"></path><path d="M849.454545 686.545455m-58.181818 0a58.181818 58.181818 0 1 0 116.363637 0 58.181818 58.181818 0 1 0-116.363637 0Z" p-id="3301" fill="#1296db"></path><path d="M174.545455 686.545455m-58.181819 0a58.181818 58.181818 0 1 0 116.363637 0 58.181818 58.181818 0 1 0-116.363637 0Z" p-id="3302" fill="#1296db"></path></svg>