<?xml version="1.0" standalone="no"?><!DOCTYPE svg PUBLIC "-//W3C//DTD SVG 1.1//EN" "http://www.w3.org/Graphics/SVG/1.1/DTD/svg11.dtd"><svg t="1702565174093" class="icon" viewBox="0 0 1024 1024" version="1.1" xmlns="http://www.w3.org/2000/svg" p-id="2439" xmlns:xlink="http://www.w3.org/1999/xlink" width="200" height="200"><path d="M512 581.818182a256 256 0 1 1 257.629091-256A256 256 0 0 1 512 581.818182z m0-442.181818a186.181818 186.181818 0 1 0 187.810909 186.181818A186.181818 186.181818 0 0 0 512 139.636364z" p-id="2440" fill="#1296db"></path><path d="M128 965.818182A34.909091 34.909091 0 0 1 93.090909 930.909091a421.003636 421.003636 0 0 1 418.909091-422.4A414.487273 414.487273 0 0 1 746.356364 581.818182a34.909091 34.909091 0 0 1-39.330909 57.716363A344.901818 344.901818 0 0 0 512 578.327273 351.418182 351.418182 0 0 0 162.909091 930.909091a34.909091 34.909091 0 0 1-34.909091 34.909091zM698.181818 966.516364a34.909091 34.909091 0 0 1-24.669091-10.24l-93.090909-93.090909a34.676364 34.676364 0 0 1 0-49.338182 35.141818 35.141818 0 0 1 49.338182 0l67.723636 67.956363 162.909091-182.225454a34.909091 34.909091 0 1 1 52.363637 46.545454l-186.181819 209.454546a35.141818 35.141818 0 0 1-25.134545 11.636363z" p-id="2441" fill="#1296db"></path></svg>