<?xml version="1.0" standalone="no"?><!DOCTYPE svg PUBLIC "-//W3C//DTD SVG 1.1//EN" "http://www.w3.org/Graphics/SVG/1.1/DTD/svg11.dtd"><svg t="1702565127192" class="icon" viewBox="0 0 1024 1024" version="1.1" xmlns="http://www.w3.org/2000/svg" p-id="2009" xmlns:xlink="http://www.w3.org/1999/xlink" width="200" height="200"><path d="M733.090909 907.636364H302.545455a34.909091 34.909091 0 0 1-30.487273-17.92l-215.272727-384a35.141818 35.141818 0 0 1 0-33.978182l215.272727-384A34.909091 34.909091 0 0 1 302.545455 69.818182h430.545454a34.909091 34.909091 0 0 1 30.487273 17.92l215.272727 384a35.141818 35.141818 0 0 1 0 33.978182l-215.272727 384a34.909091 34.909091 0 0 1-30.487273 17.92z m-410.065454-69.818182h389.585454L907.636364 488.727273 712.610909 139.636364H323.025455L127.301818 488.727273z" p-id="2010" fill="#1296db"></path><path d="M512 674.909091a186.181818 186.181818 0 1 1 186.181818-186.181818 186.181818 186.181818 0 0 1-186.181818 186.181818z m0-302.545455a116.363636 116.363636 0 1 0 116.363636 116.363637 116.363636 116.363636 0 0 0-116.363636-116.363637z" p-id="2011" fill="#1296db"></path></svg>